<svg width="130" height="133" viewBox="0 0 130 133" fill="none" xmlns="http://www.w3.org/2000/svg">
<path d="M129.584 64.1186C129.584 61.3598 129.296 58.6336 128.711 55.94C128.684 55.6339 128.682 55.3253 128.625 55.0237C126.866 45.5248 123.242 36.8333 117.793 28.9447C114.735 24.5225 111.263 20.4761 107.162 17.026C106.892 16.7615 106.637 16.4808 106.351 16.2395C95.0018 6.66177 81.9932 1.48547 67.2851 0.861342C63.1758 0.687329 59.0753 0.872943 55.0204 1.67573C54.6826 1.70357 54.3403 1.70357 54.0094 1.76621C45.3507 3.43906 37.2155 6.50635 29.8649 11.5411C14.123 22.3207 4.38316 37.237 1.18716 56.3577C-0.966151 69.2417 0.688506 81.7403 6.02194 93.7031C18.1168 120.831 47.1528 138.738 78.6022 131.313C103.817 125.36 120.039 108.96 127.526 83.6126C129.398 77.274 129.904 70.729 129.584 64.1186ZM122.8 82.2208C115.948 104.801 101.752 120.225 79.1988 125.845C54.0659 132.104 33.2762 123.703 17.3597 102.998C9.1114 92.2691 4.94302 79.8751 5.1878 66.1673C5.4938 49.1256 11.9923 34.7313 23.9104 22.9541C31.9842 14.975 41.5856 9.72209 52.5859 7.23952C52.7288 7.20701 52.8599 7.12814 52.9984 7.07014C53.0617 7.13045 53.1275 7.17685 53.1953 7.21167C53.2567 7.13277 53.3225 7.06551 53.3927 7.01445C56.0992 6.63859 58.7944 6.15598 61.5279 6.00519C77.0746 5.16065 90.8016 9.94018 102.846 19.968C106.729 23.2 110.181 26.8937 113.083 31.0144C119.062 39.5155 123.162 48.8752 124.418 59.4016C124.872 63.1882 124.931 66.977 124.822 70.7777H124.815C124.815 70.7777 124.795 70.7893 124.783 70.7984C124.795 70.8145 124.806 70.831 124.82 70.8446C124.409 74.6871 123.924 78.52 122.8 82.2208Z" fill="white"/>
<path d="M115.245 66.1768C98.7644 49.4387 82.2745 32.7104 65.8096 15.9564C65.1747 15.3114 64.8619 15.2 64.1593 15.9193C52.1165 28.2371 40.0422 40.5224 27.9722 52.8148C23.6134 57.2534 19.2478 61.687 14.8845 66.1231C14.3655 66.4598 13.9393 66.8101 14.6987 67.3484C15.3673 68.0003 16.036 68.6497 16.7046 69.3021C17.0084 69.6408 17.2985 69.9932 17.6158 70.3183C33.079 86.0628 48.5532 101.801 63.9962 117.571C64.7578 118.348 65.1251 118.504 65.9795 117.627C74.8238 108.545 83.7294 99.5244 92.6081 90.4758C96.2686 86.7449 99.8997 82.9863 103.545 79.2393C107.529 75.237 111.507 71.2276 115.506 67.2414C116.093 66.6548 115.52 66.4573 115.245 66.1768ZM67.4437 108.139V97.4803C67.4393 93.6544 67.4393 89.8264 67.4344 86V85.9145C67.4324 83.9353 67.4324 81.9585 67.428 79.9817V79.9771V79.9676V79.9631V79.9585V79.954V79.9445V79.9354V79.9304V79.9168V79.8982C67.4255 77.7008 67.4231 75.5038 67.4187 73.3065V73.2833C67.4187 72.3992 67.4167 71.5176 67.4142 70.6336V70.5385C67.4142 69.956 67.4393 69.6057 68.2618 69.6082C76.3155 69.6338 84.3687 69.6383 92.42 69.6408H92.4878C96.4886 69.6408 100.489 69.6408 104.49 69.6429C104.63 69.6429 104.771 69.6685 105.165 69.7032C92.6512 82.636 80.1799 95.3226 67.4437 108.139ZM67.4526 25.8287C67.9559 25.9842 68.221 26.3624 68.5249 26.6663C72.6525 30.8055 76.7731 34.954 80.8986 39.0955C81.1658 39.3647 81.456 39.6083 81.7349 39.8635C81.8685 39.9981 82.0025 40.1303 82.1361 40.2626C82.6188 40.8844 83.1608 41.4482 83.7839 41.9238C83.8586 42.1281 83.9946 42.2694 84.1964 42.3413C84.2985 42.576 84.4616 42.7453 84.6928 42.8424C86.5425 44.7639 88.374 46.701 90.2418 48.6034C94.2741 52.7057 98.3245 56.7915 102.366 60.8818C102.454 61.114 102.611 61.2788 102.837 61.3693C102.912 61.5874 103.055 61.7357 103.268 61.8126C103.357 62.0468 103.513 62.2092 103.742 62.2996C103.819 62.5153 103.962 62.6615 104.173 62.7404C104.422 63.0631 104.671 63.3833 104.916 63.6985C104.676 64.0071 104.39 63.8749 104.15 63.8749C92.3292 63.8774 80.5064 63.8612 68.686 63.8864C67.752 63.8889 67.4118 63.7542 67.4167 62.6591C67.4344 56.5292 67.4368 50.3972 67.4324 44.2673V44.2024C67.4481 43.3601 67.4663 42.5272 67.5071 41.6849C67.5434 40.8983 67.4845 40.1025 67.43 39.3044V39.2997V39.2951V39.2417C67.4255 34.9842 67.4187 30.729 67.4167 26.4714C67.4167 26.2858 67.4368 26.0979 67.4526 25.8287ZM62.0445 26.258C62.1849 26.5248 62.2349 26.8311 62.2212 27.1977C62.2144 27.3763 62.2031 27.6176 62.26 27.8032V30.3809C62.0897 30.664 62.2192 31.07 62.2192 31.3763C62.1942 41.8913 62.1986 52.4062 62.1986 62.9214C62.1986 63.0933 62.2075 63.2626 62.2281 63.425C62.1579 63.722 61.9536 63.898 61.3668 63.896C49.5529 63.8588 37.7393 63.8703 25.9231 63.8703H25.0641C37.4036 51.1858 49.5666 38.7475 62.0445 26.258ZM62.2644 107.304C62.2644 107.406 62.2305 107.506 62.178 107.815C49.6118 95.2184 37.3087 82.5641 24.851 69.6313H31.4152C41.343 69.6313 51.2734 69.6359 61.2038 69.6243C61.8701 69.6243 62.2914 69.5966 62.2894 70.5501C62.2531 82.8008 62.2668 95.0511 62.2644 107.304Z" fill="white"/>
<path d="M47.0075 106.313C44.5552 106.323 42.1002 106.339 39.6476 106.283C32.1723 106.109 26.8049 100.557 26.712 92.9165C26.6825 90.4064 26.7029 87.8958 26.6938 85.3832C26.6938 85.0073 26.7664 84.6082 26.4535 84.2951C25.0074 82.8516 23.5681 81.4061 21.9565 79.7916C22.156 84.6801 21.8432 89.3157 22.1469 93.9493C22.7793 103.557 29.8399 110.666 39.2331 110.965C43.4942 111.1 47.7622 111.005 52.0281 111.01C52.196 111.01 52.4111 111.074 52.5201 110.791C51.1644 109.481 49.7886 108.169 48.4378 106.831C48.0229 106.418 47.5652 106.311 47.0075 106.313Z" fill="white"/>
<path d="M83.07 27.5063C85.4499 27.4784 87.8275 27.4668 90.2055 27.5156C97.0007 27.6501 102.627 32.8659 103.366 39.787C103.66 42.5549 103.42 45.3484 103.461 48.1279C103.465 48.5084 103.336 48.9285 103.592 49.2557C104.934 50.9495 106.498 52.4157 108.105 53.8959C108.046 48.7893 108.556 43.729 107.811 38.7104C106.607 30.5944 100.448 24.1235 92.8688 23.1002C87.8097 22.4158 82.712 22.9982 77.6324 22.7801C78.9356 24.1931 80.1734 25.497 81.3656 26.8404C81.8459 27.381 82.3879 27.5156 83.07 27.5063Z" fill="white"/>
<path d="M26.1022 49.6569C26.5578 49.1768 26.7006 48.6546 26.6892 47.9957C26.6507 45.7938 26.6484 43.5922 26.6643 41.3903C26.7255 33.4924 32.3536 27.6594 40.0761 27.5132C42.4154 27.4715 44.7546 27.5202 47.0938 27.5179C47.4292 27.5179 47.8961 27.6014 48.0798 27.4181C49.5529 25.9216 50.9743 24.374 52.3796 22.8706C47.93 22.8706 43.4352 22.6757 38.961 22.9123C30.1028 23.3833 23.1079 30.3717 22.1877 39.4111C21.7026 44.1884 22.1015 48.9818 22.1673 53.91C23.4774 52.4901 24.7739 51.0586 26.1022 49.6569Z" fill="white"/>
<path d="M108.078 87.6521C108.116 85.0908 108.087 82.5294 108.087 79.6776C106.65 81.193 105.299 82.3923 104.166 83.8171C103.511 84.2207 103.354 84.8284 103.352 85.5849C103.348 88.7147 103.642 91.868 103.227 94.9702C102.371 101.381 97.2841 106.003 90.8989 106.272C88.2222 106.385 85.5384 106.295 82.8569 106.3C82.4489 106.302 82.0388 106.228 81.6966 106.592C80.3252 108.047 78.9356 109.485 77.4237 111.065C82.551 110.935 87.524 111.265 92.4902 110.842C93.1634 110.787 93.8366 110.643 94.4961 110.49C101.906 108.761 107.765 101.666 107.854 94.3273C107.897 94.2208 107.942 94.1187 107.942 93.9981V93.8031C108.248 91.7614 108.049 89.7008 108.078 87.6521Z" fill="white"/>
</svg>
